# xmcd
#
# Track frame offsets:
#	150
#	27710
#	47873
#	68038
#	87497
#	111396
#	131878
#	151622
#	171844
#	188312
#	198980
#	213240
#
# Disc length: 3022 seconds
#
# Revision: 1
# Processed by: cddbd v1.5.2PL0 Copyright (c) Steve Scherf et al.
# Submitted via: audiograbber 1.83.01
#
DISCID=a60bcc0c
DTITLE=Chris de Burgh - Into the light
DYEAR=1900
DGENRE=Ballad
TTITLE0=Last Night
TTITLE1=Fire On The Water
TTITLE2=The Ballroom Of Romance
TTITLE3=The Lady In Red
TTITLE4=Say Goodbye To It All
TTITLE5=The Spirit Of Man
TTITLE6=Fatal Hesitation
TTITLE7=One World (Straight To The Heart)
TTITLE8=For Rosanna
TTITLE9=The Leader
TTITLE10=The Vision
TTITLE11=What About Me?
EXTD=
EXTT0=
EXTT1=
EXTT2=
EXTT3=
EXTT4=
EXTT5=
EXTT6=
EXTT7=
EXTT8=
EXTT9=
EXTT10=
EXTT11=
PLAYORDER=
